<svg width="44" height="44" viewBox="0 0 44 44" fill="none" xmlns="http://www.w3.org/2000/svg">
<g clip-path="url(#clip0_622_13)">
<path d="M36.6141 44.0762C32.7946 44.0762 29.021 43.2432 25.2932 41.5773C21.5655 39.9115 18.1738 37.5513 15.1182 34.497C12.0627 31.4415 9.70256 28.0498 8.0379 24.322C6.37323 20.5942 5.54028 16.8206 5.53906 13.0012C5.53906 12.4512 5.7224 11.9928 6.08906 11.6262C6.45573 11.2595 6.91406 11.0762 7.46406 11.0762H14.8891C15.3168 11.0762 15.6988 11.2216 16.0349 11.5125C16.371 11.8034 16.5696 12.1468 16.6307 12.5428L17.8224 18.9595C17.8835 19.4484 17.8682 19.8609 17.7766 20.197C17.6849 20.5331 17.5168 20.8234 17.2724 21.0678L12.8266 25.5595C13.4377 26.6901 14.1631 27.7821 15.0027 28.8357C15.8424 29.8892 16.767 30.9055 17.7766 31.8845C18.7238 32.8317 19.7168 33.7105 20.7557 34.5208C21.7946 35.3312 22.8946 36.0718 24.0557 36.7428L28.3641 32.4345C28.6391 32.1595 28.9984 31.953 29.4421 31.8148C29.8857 31.6767 30.3208 31.6388 30.7474 31.7012L37.0724 32.9845C37.5002 33.1067 37.8516 33.3286 38.1266 33.65C38.4016 33.9715 38.5391 34.3302 38.5391 34.7262V42.1512C38.5391 42.7012 38.3557 43.1595 37.9891 43.5262C37.6224 43.8928 37.1641 44.0762 36.6141 44.0762Z" fill="black"/>
</g>
<defs>
<clipPath id="clip0_622_13">
<rect width="44" height="44" fill="white"/>
</clipPath>
</defs>
</svg>
