<svg width="19050" height="5248" viewBox="0 0 19050 5248" fill="none" xmlns="http://www.w3.org/2000/svg">
<g clip-path="url(#clip0_848_34)">
<g clip-path="url(#clip1_848_34)">
<path d="M3012.08 2108.76C3012.08 2056.23 2969.51 2013.64 2917 2013.64H721.66C669.154 2013.64 628 2056.23 628 2108.76V2649.66C628 2702.19 670.573 2744.78 721.66 2744.78H1333.29C1385.8 2744.78 1428.37 2787.38 1428.37 2839.9V4459.79C1428.37 4512.32 1470.94 4554.91 1523.45 4554.91H2119.47C2171.98 4554.91 2214.55 4512.32 2214.55 4459.79V2839.9C2214.55 2787.38 2257.12 2744.78 2309.63 2744.78H2919.84C2972.35 2744.78 3014.92 2702.19 3014.92 2649.66V2108.76H3012.08Z" fill="#2898A1"/>
<path d="M15429.2 2013.64C15376.7 2013.64 15312.8 2050.55 15285.9 2094.56L14870.1 2788.8C14843.1 2832.81 14799.1 2832.81 14773.6 2788.8L14359.2 2094.56C14332.2 2050.55 14268.4 2013.64 14215.9 2013.64H13533.3C13480.8 2013.64 13462.3 2049.13 13490.7 2091.72L14373.4 3410.63C14403.2 3453.22 14425.9 3531.3 14425.9 3583.83V4458.37C14425.9 4510.9 14468.5 4553.49 14521 4553.49H15118.4C15170.9 4553.49 15213.5 4510.9 15213.5 4458.37V3583.83C15213.5 3531.3 15236.2 3453.22 15266 3410.63L16147.2 2091.72C16175.6 2049.13 16157.2 2013.64 16104.7 2013.64H15426.3H15429.2Z" fill="#2898A1"/>
<path d="M12977 3069.9C12829.4 2994.65 12582.5 2919.41 12240.5 2845.58C12101.4 2817.19 12061.7 2795.89 12061.7 2795.89C12014.8 2771.76 11952.4 2722.07 11919.8 2683.74V2643.99C11919.8 2588.62 11942.5 2541.77 11989.3 2502.02C12034.7 2463.68 12104.2 2443.81 12195.1 2443.81C12305.7 2443.81 12392.3 2469.36 12456.2 2521.89C12510.1 2567.32 12537.1 2639.73 12537.1 2639.73C12555.5 2688 12612.3 2727.75 12664.8 2727.75H13223.9C13276.4 2727.75 13306.2 2686.58 13292 2636.89C13292 2636.89 13185.6 2272.02 13015.3 2151.35C12845 2030.67 12598.1 1971.05 12273.1 1971.05C12009.2 1971.05 11800.5 2003.7 11648.7 2070.43C11496.9 2137.15 11383.3 2228.01 11306.7 2344.43C11231.5 2460.84 11193.2 2584.36 11193.2 2713.55C11193.2 2912.31 11267 3075.58 11414.6 3203.35C11562.1 3331.12 11806.2 3434.76 12151.1 3511.43C12361.1 3558.28 12494.5 3606.55 12552.7 3659.07C12610.9 3711.6 12639.2 3769.81 12639.2 3835.12C12639.2 3904.68 12609.4 3965.73 12548.4 4018.26C12487.4 4070.79 12400.8 4097.76 12288.7 4097.76C12138.3 4097.76 12023.3 4046.65 11942.5 3943.02C11899.9 3889.07 11875.8 3803.88 11875.8 3803.88C11863 3754.19 11809.1 3713.02 11756.6 3713.02H11191.8C11139.2 3713.02 11108 3754.19 11119.4 3805.3C11119.4 3805.3 11213 4181.53 11379.1 4347.63C11545.1 4513.74 11844.5 4597.5 12275.9 4597.5C12521.5 4597.5 12725.8 4562.01 12887.6 4491.02C13049.4 4420.04 13174.2 4316.4 13265.1 4178.69C13354.5 4040.97 13399.9 3890.49 13399.9 3728.64C13399.9 3589.51 13365.8 3464.58 13299.1 3352.42C13231 3240.26 13123.1 3146.56 12975.6 3071.32L12977 3069.9Z" fill="#2898A1"/>
<path d="M9065.95 1999.44C9013.44 1999.44 8955.26 2039.19 8935.39 2087.46L7944.86 4466.89C7925 4515.16 7950.54 4554.91 8003.05 4554.91H8665.76C8716.85 4554.91 8776.45 4516.58 8797.74 4468.31L9361.12 3152.24C9380.99 3103.97 9415.05 3103.97 9434.91 3152.24L9998.3 4468.31C10019.6 4516.58 10077.8 4554.91 10130.3 4554.91H10791.6C10844.1 4554.91 10869.6 4515.16 10849.8 4466.89L9857.81 2087.46C9837.94 2039.19 9778.34 1999.44 9727.25 1999.44H9065.95Z" fill="#2898A1"/>
<path d="M17731 2087.46C17711.1 2039.19 17652.9 1999.44 17600.4 1999.44H16937.7C16885.2 1999.44 16827 2039.19 16807.1 2087.46L15816.6 4466.89C15796.7 4515.16 15822.3 4554.91 15874.8 4554.91H16537.5C16590 4554.91 16648.2 4516.58 16669.5 4468.31L17232.9 3152.24C17252.7 3103.97 17286.8 3103.97 17308.1 3152.24L17871.4 4468.31C17891.3 4516.58 17950.9 4554.91 18003.4 4554.91H18666.1C18718.6 4554.91 18744.2 4515.16 18724.3 4466.89L17732.4 2087.46H17731Z" fill="#2898A1"/>
<path d="M3958.62 1999.44C3907.53 1999.44 3847.93 2039.19 3828.06 2087.46L2841.79 4466.88C2821.92 4515.15 2847.47 4554.91 2899.97 4554.91H3571.21C3622.29 4554.91 3681.9 4515.15 3701.76 4466.88L4253.79 3150.82C4273.66 3102.55 4307.72 3102.55 4327.59 3150.82L4890.97 4466.88C4910.83 4515.15 4970.44 4553.49 5022.94 4553.49H5684.24C5735.33 4553.49 5762.29 4513.73 5742.43 4465.46L4751.9 2086.04C4732.03 2037.77 4672.43 1998.02 4621.34 1998.02H3958.62V1999.44Z" fill="#2898A1"/>
<path d="M7476.56 1999.44L6879.12 3441.86C6859.26 3490.13 6826.62 3490.13 6806.75 3441.86L6241.95 2086.04C6222.08 2037.77 6162.48 1998.02 6111.39 1998.02H5448.67C5397.59 1998.02 5370.62 2037.77 5390.49 2086.04L6381.02 4465.47C6400.89 4513.74 6460.49 4553.49 6511.58 4553.49H7174.3C7226.8 4553.49 7284.98 4513.74 7304.85 4465.47L8326.6 1998.02C8326.6 1998.02 8758.01 721.708 9609.47 508.753C9609.47 508.753 8332.28 82.8415 7476.56 1999.44Z" fill="#414042"/>
</g>
</g>
<defs>
<clipPath id="clip0_848_34">
<rect width="19050" height="5248" fill="white"/>
</clipPath>
<clipPath id="clip1_848_34">
<rect width="18102" height="6038" fill="white" transform="translate(628 469)"/>
</clipPath>
</defs>
</svg>
