<svg width="118" height="40" viewBox="0 0 118 40" fill="none" xmlns="http://www.w3.org/2000/svg">
<g clip-path="url(#clip0_622_313)">
<path d="M15.5317 10.6822C15.5317 10.34 15.2543 10.0625 14.9122 10.0625H0.610172C0.268106 10.0625 0 10.34 0 10.6822V14.206C0 14.5483 0.277351 14.8257 0.610172 14.8257H4.59478C4.93685 14.8257 5.2142 15.1032 5.2142 15.4454V25.9985C5.2142 26.3407 5.49155 26.6182 5.83362 26.6182H9.71653C10.0586 26.6182 10.336 26.3407 10.336 25.9985V15.4454C10.336 15.1032 10.6133 14.8257 10.9554 14.8257H14.9307C15.2728 14.8257 15.5502 14.5483 15.5502 14.206V10.6822H15.5317Z" fill="#2898A1"/>
<path d="M96.4262 10.0625C96.0841 10.0625 95.6681 10.303 95.4924 10.5897L92.7836 15.1124C92.608 15.3992 92.3214 15.3992 92.155 15.1124L89.4554 10.5897C89.2798 10.303 88.8637 10.0625 88.5217 10.0625H84.0748C83.7327 10.0625 83.6126 10.2937 83.7975 10.5712L89.5479 19.1635C89.742 19.441 89.8899 19.9497 89.8899 20.2919V25.9893C89.8899 26.3315 90.1673 26.6089 90.5094 26.6089H94.4015C94.7436 26.6089 95.0209 26.3315 95.0209 25.9893V20.2919C95.0209 19.9497 95.1689 19.441 95.363 19.1635L101.104 10.5712C101.289 10.2937 101.169 10.0625 100.827 10.0625H96.4077H96.4262Z" fill="#2898A1"/>
<path d="M80.4528 16.9439C79.4913 16.4537 77.8827 15.9635 75.6547 15.4825C74.7486 15.2976 74.4898 15.1588 74.4898 15.1588C74.1847 15.0016 73.7779 14.6779 73.5653 14.4282V14.1692C73.5653 13.8085 73.7132 13.5033 74.0183 13.2443C74.3141 12.9946 74.7671 12.8651 75.3588 12.8651C76.0799 12.8651 76.6439 13.0316 77.0599 13.3738C77.4112 13.6697 77.5869 14.1414 77.5869 14.1414C77.7071 14.4559 78.0769 14.7149 78.4189 14.7149H82.0615C82.4035 14.7149 82.5977 14.4466 82.5052 14.1229C82.5052 14.1229 81.8118 11.7459 80.7024 10.9598C79.593 10.1736 77.9844 9.78516 75.8673 9.78516C74.1477 9.78516 72.7887 9.99788 71.7995 10.4326C70.8103 10.8673 70.0707 11.4592 69.5714 12.2176C69.0814 12.9761 68.8318 13.7807 68.8318 14.6224C68.8318 15.9172 69.3126 16.9809 70.274 17.8133C71.2355 18.6457 72.8257 19.3209 75.0722 19.8203C76.4405 20.1255 77.3095 20.44 77.6886 20.7822C78.0676 21.1244 78.2525 21.5036 78.2525 21.9291C78.2525 22.3823 78.0584 22.78 77.6608 23.1222C77.2633 23.4644 76.6993 23.6401 75.969 23.6401C74.989 23.6401 74.2402 23.3072 73.7132 22.632C73.4358 22.2805 73.2787 21.7256 73.2787 21.7256C73.1955 21.4019 72.8442 21.1337 72.5021 21.1337H68.8226C68.4805 21.1337 68.2771 21.4019 68.3511 21.7349C68.3511 21.7349 68.9612 24.1858 70.0429 25.268C71.1246 26.3501 73.0753 26.8958 75.8858 26.8958C77.4852 26.8958 78.8165 26.6646 79.8704 26.2021C80.9243 25.7397 81.7379 25.0645 82.3296 24.1673C82.912 23.2702 83.2078 22.2898 83.2078 21.2354C83.2078 20.329 82.986 19.5151 82.5515 18.7844C82.1077 18.0538 81.4051 17.4433 80.4436 16.9531L80.4528 16.9439Z" fill="#2898A1"/>
<path d="M54.9724 9.9707C54.6303 9.9707 54.2513 10.2297 54.1219 10.5441L47.6688 26.0455C47.5394 26.3599 47.7058 26.6189 48.0479 26.6189H52.3653C52.6981 26.6189 53.0864 26.3692 53.2251 26.0547L56.8954 17.4809C57.0248 17.1664 57.2467 17.1664 57.3761 17.4809L61.0464 26.0547C61.1851 26.3692 61.5641 26.6189 61.9062 26.6189H66.2144C66.5564 26.6189 66.7228 26.3599 66.5934 26.0455L60.1311 10.5441C60.0017 10.2297 59.6134 9.9707 59.2806 9.9707H54.9724Z" fill="#2898A1"/>
<path d="M111.422 10.5441C111.292 10.2297 110.913 9.9707 110.571 9.9707H106.254C105.912 9.9707 105.533 10.2297 105.403 10.5441L98.9501 26.0455C98.8206 26.3599 98.9871 26.6189 99.3291 26.6189H103.647C103.989 26.6189 104.368 26.3692 104.506 26.0547L108.177 17.4809C108.306 17.1664 108.528 17.1664 108.667 17.4809L112.337 26.0547C112.466 26.3692 112.855 26.6189 113.197 26.6189H117.514C117.856 26.6189 118.023 26.3599 117.893 26.0455L111.431 10.5441H111.422Z" fill="#2898A1"/>
<path d="M21.6947 9.97019C21.3618 9.97019 20.9735 10.2292 20.8441 10.5436L14.4188 26.0449C14.2894 26.3594 14.4558 26.6184 14.7979 26.6184H19.1708C19.5036 26.6184 19.8919 26.3594 20.0213 26.0449L23.6176 17.4711C23.7471 17.1567 23.9689 17.1567 24.0984 17.4711L27.7687 26.0449C27.8981 26.3594 28.2864 26.6091 28.6284 26.6091H32.9366C33.2695 26.6091 33.4451 26.3501 33.3157 26.0357L26.8626 10.5344C26.7332 10.2199 26.3449 9.96094 26.0121 9.96094H21.6947V9.97019Z" fill="#2898A1"/>
<path d="M44.6173 9.97023L40.7251 19.3672C40.5957 19.6817 40.3831 19.6817 40.2536 19.3672L36.5741 10.5344C36.4447 10.22 36.0564 9.96098 35.7236 9.96098H31.4061C31.0733 9.96098 30.8977 10.22 31.0271 10.5344L37.4801 26.0357C37.6096 26.3502 37.9978 26.6092 38.3307 26.6092H42.6481C42.9902 26.6092 43.3692 26.3502 43.4986 26.0357L50.1551 9.96098C50.1551 9.96098 52.9656 1.64614 58.5126 0.258787C58.5126 0.258787 50.1921 -2.51591 44.6173 9.97023Z" fill="#414042"/>
<path d="M40.3911 36.8478C39.6422 36.8478 39.0321 36.6073 38.5698 36.1078C38.0983 35.6176 37.8672 34.961 37.8672 34.147C37.8672 33.3331 38.1076 32.6857 38.5791 32.1955C39.0506 31.7053 39.67 31.4648 40.4281 31.4648C41.1862 31.4648 41.7963 31.6961 42.2493 32.1585C42.7116 32.621 42.9427 33.2129 42.9427 33.9436C42.9427 34.1286 42.9242 34.295 42.9057 34.4615H38.7547C38.7824 34.9795 38.9396 35.3864 39.2447 35.6916C39.5498 35.9968 39.9288 36.1448 40.4003 36.1448C40.7516 36.1448 41.0567 36.0616 41.2971 35.9044C41.5375 35.7471 41.7224 35.5344 41.8333 35.2754H42.7671C42.6006 35.7286 42.3233 36.1078 41.9165 36.4038C41.5097 36.6998 41.0105 36.8478 40.4003 36.8478H40.3911ZM41.556 32.6302C41.2416 32.325 40.8626 32.177 40.4003 32.177C39.9381 32.177 39.559 32.325 39.2539 32.621C38.9489 32.9169 38.7824 33.3146 38.7547 33.8326H42.0275C42.0275 33.3331 41.861 32.9354 41.556 32.6302Z" fill="#414042"/>
<path d="M44.8768 31.5476V32.3892C45.2282 31.7695 45.8014 31.4551 46.5779 31.4551C47.1604 31.4551 47.6319 31.6493 48.0202 32.0285C48.4084 32.417 48.6026 32.9534 48.6026 33.6656V36.7548H47.7428V33.8043C47.7428 33.2771 47.6134 32.8794 47.3638 32.6112C47.1141 32.3337 46.7628 32.2042 46.3098 32.2042C45.8568 32.2042 45.5148 32.343 45.2559 32.6112C44.997 32.8887 44.8676 33.2864 44.8676 33.8043V36.7548H44.0078V31.5383H44.8676L44.8768 31.5476Z" fill="#414042"/>
<path d="M50.3447 36.0899C49.8732 35.5812 49.6328 34.9337 49.6328 34.1383C49.6328 33.3429 49.8732 32.6955 50.3447 32.2053C50.8162 31.7151 51.4079 31.4746 52.129 31.4746C52.5727 31.4746 52.961 31.5763 53.2939 31.7891C53.6267 32.0018 53.8763 32.27 54.0427 32.603V31.5579H54.921V36.7743H54.0427V35.7106C53.8763 36.0529 53.6267 36.3303 53.2939 36.5431C52.961 36.7558 52.5727 36.8575 52.129 36.8575C51.4171 36.8575 50.8254 36.6078 50.3539 36.0899H50.3447ZM53.525 35.5812C53.867 35.2297 54.0427 34.7488 54.0427 34.1661C54.0427 33.5834 53.8763 33.1024 53.525 32.751C53.1829 32.3995 52.7669 32.2238 52.2861 32.2238C51.8054 32.2238 51.3894 32.3903 51.0381 32.7325C50.696 33.0747 50.5203 33.5371 50.5203 34.1291C50.5203 34.721 50.696 35.1927 51.0381 35.5627C51.3894 35.9326 51.8054 36.1176 52.2861 36.1176C52.7669 36.1176 53.1829 35.9419 53.525 35.5904V35.5812Z" fill="#414042"/>
<path d="M59.1343 31.4639C59.8462 31.4639 60.4379 31.7044 60.9186 32.1946C61.3901 32.6848 61.6305 33.3322 61.6305 34.1276C61.6305 34.9231 61.3901 35.5705 60.9186 36.0792C60.4471 36.5879 59.8462 36.8468 59.1436 36.8468C58.6998 36.8468 58.3115 36.7451 57.9787 36.5324C57.6459 36.3197 57.387 36.0422 57.2114 35.7V36.7636H56.3516V29.7344H57.2114V32.5923C57.387 32.2593 57.6459 31.9819 57.9787 31.7784C58.3115 31.5657 58.6998 31.4639 59.1436 31.4639H59.1343ZM58.9679 36.1069C59.4486 36.1069 59.8647 35.9219 60.216 35.5612C60.5581 35.2005 60.7337 34.7196 60.7337 34.1276C60.7337 33.5357 60.5581 33.064 60.216 32.7218C59.8739 32.3796 59.4579 32.2131 58.9679 32.2131C58.4779 32.2131 58.0711 32.3888 57.7198 32.7403C57.3778 33.0918 57.2021 33.5635 57.2021 34.1554C57.2021 34.7473 57.3778 35.2098 57.7198 35.5705C58.0619 35.9312 58.4779 36.1069 58.9679 36.1069Z" fill="#414042"/>
<path d="M62.7031 36.7636V29.7344H63.5722V36.7636H62.7031Z" fill="#414042"/>
<path d="M65.8422 30.5399C65.7313 30.6601 65.5926 30.7156 65.4262 30.7156C65.2598 30.7156 65.1211 30.6601 65.0102 30.5399C64.8992 30.4289 64.8438 30.2902 64.8438 30.1237C64.8438 29.9572 64.8992 29.8185 65.0194 29.7075C65.1303 29.5965 65.269 29.541 65.4354 29.541C65.6018 29.541 65.7313 29.5965 65.8515 29.7075C65.9624 29.8185 66.0271 29.9572 66.0271 30.1237C66.0271 30.2902 65.9716 30.4289 65.8515 30.5399H65.8422ZM64.9917 36.7645V31.548H65.8515V36.7645H64.9917Z" fill="#414042"/>
<path d="M68.141 31.5476V32.3892C68.4924 31.7695 69.0655 31.4551 69.8421 31.4551C70.4153 31.4551 70.8961 31.6493 71.2844 32.0285C71.6726 32.417 71.8668 32.9534 71.8668 33.6656V36.7548H71.007V33.8043C71.007 33.2771 70.8776 32.8794 70.628 32.6112C70.3783 32.3337 70.027 32.2042 69.5833 32.2042C69.1395 32.2042 68.7882 32.343 68.5293 32.6112C68.2705 32.8887 68.141 33.2864 68.141 33.8043V36.7548H67.2812V31.5383H68.141V31.5476Z" fill="#414042"/>
<path d="M73.6181 36.0899C73.1374 35.5812 72.9062 34.9337 72.9062 34.1383C72.9062 33.3429 73.1466 32.6955 73.6181 32.2053C74.0896 31.7151 74.6813 31.4746 75.4024 31.4746C75.8462 31.4746 76.2345 31.5763 76.5673 31.7891C76.9001 32.0018 77.1497 32.27 77.3254 32.603V31.5579H78.1944V36.9038C78.1944 37.6159 77.9633 38.1986 77.501 38.6611C77.0388 39.1143 76.4563 39.3363 75.7445 39.3363C75.0326 39.3363 74.4502 39.1698 73.9787 38.8461C73.5164 38.5131 73.2483 38.0876 73.1836 37.5512H74.0249C74.1081 37.8472 74.3022 38.0969 74.6073 38.2911C74.9124 38.4853 75.2915 38.5871 75.7352 38.5871C76.179 38.5871 76.558 38.4391 76.8631 38.1431C77.1682 37.8472 77.3161 37.431 77.3161 36.9038V35.7106C77.1497 36.0529 76.8909 36.3303 76.558 36.5431C76.2252 36.7558 75.8369 36.8575 75.3932 36.8575C74.6813 36.8575 74.0896 36.6078 73.6181 36.0899ZM76.7984 35.5812C77.1405 35.2297 77.3161 34.7488 77.3161 34.1661C77.3161 33.5834 77.1405 33.1024 76.7984 32.751C76.4563 32.3995 76.0403 32.2238 75.5503 32.2238C75.0603 32.2238 74.6536 32.3903 74.3023 32.7325C73.9602 33.0747 73.7845 33.5371 73.7845 34.1291C73.7845 34.721 73.9602 35.1927 74.3115 35.5627C74.6536 35.9326 75.0696 36.1176 75.5596 36.1176C76.0496 36.1176 76.4563 35.9419 76.7984 35.5904V35.5812Z" fill="#414042"/>
<path d="M82.8291 36.0889C82.3483 35.5803 82.1172 34.9328 82.1172 34.1374C82.1172 33.342 82.3483 32.6946 82.8291 32.2044C83.3005 31.7142 83.8922 31.4737 84.6133 31.4737C85.0571 31.4737 85.4454 31.5754 85.7782 31.7882C86.111 32.0009 86.3607 32.2691 86.5363 32.6021V29.7441H87.4146V36.7734H86.5363V35.7097C86.3699 36.052 86.111 36.3294 85.7782 36.5421C85.4454 36.7549 85.0571 36.8566 84.6133 36.8566C83.9015 36.8566 83.3098 36.6069 82.8383 36.0889H82.8291ZM86.0093 35.5803C86.3514 35.2288 86.5271 34.7478 86.5271 34.1652C86.5271 33.5825 86.3514 33.1015 86.0093 32.7501C85.6673 32.3986 85.2513 32.2229 84.7705 32.2229C84.2898 32.2229 83.8737 32.3894 83.5317 32.7316C83.1804 33.0738 83.014 33.5362 83.014 34.1282C83.014 34.7201 83.1896 35.1918 83.5409 35.5618C83.8922 35.9317 84.299 36.1167 84.789 36.1167C85.279 36.1167 85.6858 35.941 86.0278 35.5895L86.0093 35.5803Z" fill="#414042"/>
<path d="M89.6879 31.5481V32.436C90.0022 31.7886 90.5292 31.4648 91.2781 31.4648V32.362H91.0469C90.6032 32.362 90.2703 32.4822 90.0392 32.7135C89.8081 32.9447 89.6879 33.3424 89.6879 33.9158V36.7645H88.8281V31.5481H89.6879Z" fill="#414042"/>
<path d="M94.5005 36.8478C93.7516 36.8478 93.1507 36.6073 92.6792 36.1078C92.2077 35.6176 91.9766 34.961 91.9766 34.147C91.9766 33.3331 92.2169 32.6857 92.6884 32.1955C93.1692 31.7053 93.7793 31.4648 94.5374 31.4648C95.2955 31.4648 95.9057 31.6961 96.3587 32.1585C96.821 32.621 97.0428 33.2129 97.0428 33.9436C97.0428 34.1286 97.0336 34.295 97.0059 34.4615H92.8548C92.8826 34.9795 93.0397 35.3864 93.3448 35.6916C93.6499 35.9968 94.029 36.1448 94.5005 36.1448C94.8518 36.1448 95.1569 36.0616 95.3972 35.9044C95.6376 35.7471 95.8225 35.5344 95.9334 35.2754H96.8672C96.7008 35.7286 96.4234 36.1078 96.0166 36.4038C95.6191 36.6998 95.1106 36.8478 94.5005 36.8478ZM95.6746 32.6302C95.3602 32.325 94.9812 32.177 94.5189 32.177C94.0567 32.177 93.6777 32.325 93.3726 32.621C93.0675 32.9169 92.9011 33.3146 92.8733 33.8326H96.1553C96.1553 33.3331 95.9889 32.9354 95.6838 32.6302H95.6746Z" fill="#414042"/>
<path d="M98.4931 36.0899C98.0124 35.5812 97.7812 34.9337 97.7812 34.1383C97.7812 33.3429 98.0124 32.6955 98.4839 32.2053C98.9554 31.7151 99.5471 31.4746 100.268 31.4746C100.712 31.4746 101.1 31.5763 101.433 31.7891C101.766 32.0018 102.015 32.27 102.191 32.603V31.5579H103.069V36.7743H102.191V35.7106C102.025 36.0529 101.766 36.3303 101.433 36.5431C101.1 36.7558 100.712 36.8575 100.268 36.8575C99.5563 36.8575 98.9646 36.6078 98.4931 36.0899ZM101.664 35.5812C102.006 35.2297 102.182 34.7488 102.182 34.1661C102.182 33.5834 102.006 33.1024 101.664 32.751C101.322 32.3995 100.906 32.2238 100.425 32.2238C99.9446 32.2238 99.5286 32.3903 99.1773 32.7325C98.8352 33.0747 98.6595 33.5371 98.6595 34.1291C98.6595 34.721 98.8352 35.1927 99.1773 35.5627C99.5193 35.9326 99.9446 36.1176 100.416 36.1176C100.888 36.1176 101.313 35.9419 101.655 35.5904L101.664 35.5812Z" fill="#414042"/>
<path d="M105.344 31.5476V32.3892C105.695 31.7695 106.269 31.4551 107.045 31.4551C107.443 31.4551 107.803 31.5476 108.127 31.7418C108.45 31.936 108.691 32.2135 108.857 32.5835C109.051 32.232 109.31 31.9545 109.634 31.751C109.957 31.5476 110.327 31.4551 110.753 31.4551C111.344 31.4551 111.834 31.6493 112.213 32.0285C112.602 32.417 112.796 32.9534 112.796 33.6656V36.7548H111.945V33.8043C111.945 33.2771 111.816 32.8794 111.557 32.6112C111.298 32.3337 110.947 32.2042 110.512 32.2042C110.078 32.2042 109.717 32.343 109.467 32.6112C109.209 32.8887 109.079 33.2864 109.079 33.8043V36.7548H108.219V33.8043C108.219 33.2771 108.09 32.8794 107.84 32.6112C107.581 32.3337 107.23 32.2042 106.786 32.2042C106.343 32.2042 105.991 32.343 105.732 32.6112C105.474 32.8887 105.344 33.2864 105.344 33.8043V36.7548H104.484V31.5383H105.344V31.5476Z" fill="#414042"/>
<path d="M113.989 33.0182C113.989 32.5835 114.164 32.2135 114.534 31.9083C114.895 31.6031 115.375 31.4551 115.949 31.4551C116.522 31.4551 116.984 31.6031 117.308 31.899C117.64 32.195 117.816 32.5927 117.853 33.1106H116.966C116.956 32.8147 116.855 32.5835 116.67 32.4077C116.485 32.232 116.235 32.1395 115.902 32.1395C115.57 32.1395 115.32 32.2135 115.135 32.3707C114.941 32.528 114.858 32.7222 114.858 32.9719C114.858 33.2216 114.959 33.4066 115.172 33.5361C115.385 33.6748 115.644 33.7673 115.939 33.8228C116.244 33.8876 116.54 33.9523 116.836 34.0355C117.141 34.1188 117.391 34.2668 117.603 34.4795C117.816 34.6922 117.918 35.0067 117.918 35.4044C117.918 35.8021 117.733 36.1443 117.372 36.4218C117.012 36.6993 116.531 36.838 115.949 36.838C115.366 36.838 114.904 36.69 114.553 36.4033C114.201 36.1073 114.007 35.7096 113.979 35.2009H114.867C114.876 35.4876 114.987 35.7281 115.172 35.8946C115.366 36.0703 115.634 36.1536 115.967 36.1536C116.3 36.1536 116.568 36.0796 116.762 35.9316C116.956 35.7836 117.058 35.5986 117.058 35.3767C117.058 35.1547 116.984 34.9697 116.827 34.8402C116.67 34.7015 116.485 34.6182 116.254 34.5627C116.023 34.5165 115.773 34.4518 115.505 34.3778C115.237 34.313 114.987 34.2298 114.756 34.1558C114.525 34.0818 114.34 33.9431 114.183 33.7396C114.035 33.5454 113.961 33.2956 113.961 32.9997L113.989 33.0182Z" fill="#414042"/>
</g>
<defs>
<clipPath id="clip0_622_313">
<rect width="117.93" height="39.336" fill="white"/>
</clipPath>
</defs>
</svg>
