<svg width="789" height="181" viewBox="0 0 789 181" fill="none" xmlns="http://www.w3.org/2000/svg">
<path d="M103.737 71.7497C103.737 69.4611 101.884 67.6055 99.5996 67.6055H4.07537C1.79069 67.6055 0 69.4611 0 71.7497V95.3161C0 97.6047 1.85244 99.4604 4.07537 99.4604H30.6888C32.9735 99.4604 34.8259 101.316 34.8259 103.605V174.18C34.8259 176.469 36.6784 178.324 38.963 178.324H64.8972C67.1819 178.324 69.0343 176.469 69.0343 174.18V103.605C69.0343 101.316 70.8868 99.4604 73.1715 99.4604H99.7231C102.008 99.4604 103.86 97.6047 103.86 95.3161V71.7497H103.737Z" fill="#2898A1"/>
<path d="M645.002 67.6055C642.701 67.6055 639.902 69.2146 638.721 71.1331L620.5 101.397C619.319 103.315 617.391 103.315 616.271 101.397L598.113 71.1331C596.931 69.2146 594.133 67.6055 591.832 67.6055H561.92C559.619 67.6055 558.811 69.1527 560.055 71.0094L598.735 128.504C600.041 130.361 601.036 133.765 601.036 136.054V174.178C601.036 176.468 602.901 178.324 605.202 178.324H631.383C633.684 178.324 635.549 176.468 635.549 174.178V136.054C635.549 133.765 636.544 130.361 637.85 128.504L676.468 71.0094C677.712 69.1527 676.904 67.6055 674.603 67.6055H644.877H645.002Z" fill="#2898A1"/>
<path d="M538.021 113.611C531.559 110.326 520.749 107.042 505.776 103.82C499.688 102.581 497.948 101.651 497.948 101.651C495.898 100.598 493.164 98.4288 491.736 96.7557V95.0206C491.736 92.6039 492.73 90.559 494.78 88.8239C496.768 87.1508 499.812 86.2833 503.788 86.2833C508.634 86.2833 512.424 87.3987 515.22 89.6915C517.581 91.6744 518.761 94.8347 518.761 94.8347C519.569 96.9416 522.054 98.6766 524.353 98.6766H548.831C551.13 98.6766 552.434 96.8796 551.813 94.7108C551.813 94.7108 547.153 78.7854 539.698 73.5182C532.243 68.251 521.433 65.6484 507.205 65.6484C495.65 65.6484 486.517 67.0737 479.869 69.9861C473.221 72.8985 468.251 76.8644 464.896 81.9457C461.604 87.0269 459.926 92.418 459.926 98.057C459.926 106.732 463.157 113.858 469.618 119.435C476.079 125.012 486.765 129.536 501.862 132.882C511.057 134.927 516.897 137.034 519.444 139.327C521.992 141.619 523.234 144.16 523.234 147.011C523.234 150.047 521.93 152.712 519.258 155.004C516.587 157.297 512.797 158.474 507.889 158.474C501.303 158.474 496.271 156.244 492.73 151.72C490.866 149.365 489.81 145.647 489.81 145.647C489.25 143.478 486.89 141.681 484.591 141.681H459.864C457.565 141.681 456.198 143.478 456.695 145.709C456.695 145.709 460.796 162.13 468.065 169.381C475.334 176.631 488.443 180.287 507.33 180.287C518.078 180.287 527.024 178.737 534.107 175.639C541.189 172.541 546.656 168.017 550.633 162.006C554.547 155.996 556.535 149.427 556.535 142.363C556.535 136.29 555.044 130.837 552.124 125.942C549.142 121.047 544.42 116.957 537.959 113.673L538.021 113.611Z" fill="#2898A1"/>
<path d="M367.665 67.6055C365.373 67.6055 362.833 69.3278 361.966 71.4191L318.733 174.511C317.866 176.602 318.981 178.324 321.273 178.324H350.198C352.428 178.324 355.029 176.664 355.958 174.572L380.548 117.552C381.415 115.461 382.902 115.461 383.769 117.552L408.358 174.572C409.287 176.664 411.827 178.324 414.119 178.324H442.982C445.274 178.324 446.389 176.602 445.522 174.511L402.226 71.4191C401.359 69.3278 398.758 67.6055 396.528 67.6055H367.665Z" fill="#2898A1"/>
<path d="M745.142 71.4191C744.276 69.3278 741.739 67.6055 739.45 67.6055H710.552C708.263 67.6055 705.726 69.3278 704.86 71.4191L661.668 174.511C660.802 176.602 661.916 178.324 664.205 178.324H693.103C695.392 178.324 697.929 176.664 698.857 174.572L723.423 117.552C724.289 115.461 725.775 115.461 726.703 117.552L751.268 174.572C752.135 176.664 754.734 178.324 757.023 178.324H785.92C788.21 178.324 789.324 176.602 788.457 174.511L745.204 71.4191H745.142Z" fill="#2898A1"/>
<path d="M145.135 66.6909C142.902 66.6909 140.297 68.4275 139.428 70.5362L96.3155 174.482C95.447 176.591 96.5636 178.328 98.8589 178.328H128.2C130.434 178.328 133.039 176.591 133.907 174.482L158.038 116.989C158.907 114.881 160.395 114.881 161.264 116.989L185.891 174.482C186.759 176.591 189.365 178.266 191.66 178.266H220.567C222.8 178.266 223.979 176.529 223.111 174.42L179.812 70.4742C178.943 68.3655 176.338 66.6289 174.105 66.6289H145.135V66.6909Z" fill="#2898A1"/>
<path d="M297.965 66.8336L271.921 129.8C271.054 131.907 269.632 131.907 268.765 129.8L244.144 70.6141C243.278 68.507 240.68 66.7717 238.453 66.7717H209.562C207.335 66.7717 206.16 68.507 207.026 70.6141L250.207 174.484C251.073 176.591 253.671 178.326 255.898 178.326H284.788C287.077 178.326 289.613 176.591 290.479 174.484L335.021 66.7717C335.021 66.7717 353.827 11.0564 390.945 1.76023C390.945 1.76023 335.268 -16.8322 297.965 66.8336Z" fill="#212021"/>
</svg>
