<svg width="128" height="128" viewBox="0 0 128 128" fill="none" xmlns="http://www.w3.org/2000/svg">
<circle cx="64" cy="64" r="64" fill="#282828"/>
<path d="M109 54L63 30L17 54L63 78C85.22 66.42 83 67.76 83 67.18L62.04 55.76C61.5732 55.4948 61.2309 55.055 61.0884 54.5374C60.9459 54.0198 61.0148 53.4668 61.28 53C61.5452 52.5332 61.985 52.1909 62.5026 52.0484C63.0202 51.9059 63.5732 51.9748 64.04 52.24L86.04 64.24C88.04 65.4 84.96 66.58 91.08 63.4L109 54Z" fill="white"/>
<path d="M63 82.5211L35 68.0011V82.0011C35 92.4811 65.2 98.2211 83 90.3811V72.1011L63 82.5211ZM91 82.0011V68.0011L87 70.0011V88.1811C88.1128 87.5466 89.057 86.654 89.7531 85.5786C90.4492 84.5031 90.8768 83.2763 91 82.0011ZM83 72.1011L87 70.0011V66.0011C87 65.2611 87.32 65.3211 83 67.5811V72.1011ZM83 102.561C80.34 104.101 81 106.381 81 114.001H89V106.001C88.9958 105.303 88.809 104.618 88.4581 104.015C88.1072 103.411 87.6046 102.91 87 102.561V88.1811C85.7466 89.0512 84.406 89.7885 83 90.3811V102.561Z" fill="white"/>
</svg>
