<svg width="132" height="132" viewBox="0 0 132 132" fill="none" xmlns="http://www.w3.org/2000/svg">
<circle cx="66" cy="66" r="66" fill="#282828"/>
<path d="M71.8576 37H77.2416V52.6979C77.2416 63.9896 68.1644 73.08 56.8909 73.08H56.3507C45.0772 73.08 36 63.9896 36 52.6979V37H41.3804M90.1525 75.9858V81.2927C90.1525 90.5485 82.7118 98 73.471 98H73.0286C63.7878 98 56.3471 90.5485 56.3471 81.2927V75.9858" stroke="white" stroke-width="5" stroke-linecap="round" stroke-linejoin="round"/>
<path d="M90.4014 75.0712C94.0461 75.0712 97.0001 72.1119 97.0001 68.4614C97.0001 64.8109 94.0461 61.8516 90.4014 61.8516C86.7567 61.8516 83.8027 64.8109 83.8027 68.4614C83.8027 72.1119 86.7567 75.0712 90.4014 75.0712Z" stroke="white" stroke-width="5" stroke-linecap="round" stroke-linejoin="round"/>
</svg>
