<svg width="132" height="132" viewBox="0 0 132 132" fill="none" xmlns="http://www.w3.org/2000/svg">
<circle cx="66" cy="66" r="66" fill="#282828"/>
<path d="M54.1638 57.5515C54.047 57.6579 53.9523 57.7862 53.8852 57.9292C53.8181 58.0723 53.7799 58.2271 53.7727 58.3849C53.7656 58.5427 53.7896 58.7004 53.8435 58.8489C53.8974 58.9974 53.9801 59.1338 54.0868 59.2503L55.0372 60.2946C55.6027 60.9106 55.9131 61.7119 55.9131 62.672C55.9131 63.3361 56.4521 63.815 57.1162 63.815C57.7804 63.815 58.3194 63.2182 58.3194 62.5541C58.3194 61.1103 57.7828 59.7316 56.8131 58.6728L55.8626 57.6309C55.6478 57.3952 55.3482 57.2545 55.0296 57.2396C54.7111 57.2247 54.3997 57.3369 54.1638 57.5515ZM75.2016 57.6309L74.2512 58.6728C73.2602 59.7677 72.7218 61.1979 72.7448 62.6744C72.7448 63.3385 73.2838 63.8174 73.948 63.8174C74.6121 63.8174 75.1511 63.2206 75.1511 62.5565C75.1511 61.7167 75.4615 60.9154 76.027 60.297L76.9774 59.2551C77.0841 59.1386 77.1668 59.0022 77.2207 58.8537C77.2746 58.7052 77.2987 58.5475 77.2915 58.3897C77.2843 58.2319 77.2461 58.0771 77.179 57.934C77.1119 57.791 77.0172 57.6627 76.9004 57.5563C76.7843 57.4492 76.648 57.3661 76.4996 57.3118C76.3511 57.2575 76.1934 57.2331 76.0355 57.2401C75.8776 57.247 75.7226 57.2851 75.5795 57.3522C75.4364 57.4193 75.308 57.514 75.2016 57.6309Z" fill="white"/>
<path d="M59.8722 48.3414L57.9616 50.4613L52.6944 53.6207C51.8437 54.1351 51.1396 54.8598 50.6499 55.7249C50.1603 56.5901 49.9014 57.5667 49.8983 58.5608V62.6706C49.8983 62.9897 50.025 63.2958 50.2507 63.5214C50.4763 63.747 50.7823 63.8738 51.1014 63.8738C51.4205 63.8738 51.7265 63.747 51.9522 63.5214C52.1778 63.2958 52.3045 62.9897 52.3045 62.6706V58.5608C52.3045 57.3913 52.9302 56.2893 53.9336 55.6853L58.426 52.9903L60.813 55.9741C60.919 56.1061 61.0515 56.2143 61.202 56.2919C61.3524 56.3694 61.5175 56.4144 61.6865 56.424L61.7515 56.4264C62.0691 56.4264 62.3771 56.2989 62.6033 56.0751L64.3262 54.3522V62.6731C64.3262 62.9921 64.4529 63.2982 64.6786 63.5238C64.9042 63.7494 65.2102 63.8762 65.5293 63.8762C65.8484 63.8762 66.1544 63.7494 66.38 63.5238C66.6057 63.2982 66.7324 62.9921 66.7324 62.6731V54.3113L68.4938 56.0751C68.72 56.3004 69.0263 56.4267 69.3456 56.4264L69.4106 56.424C69.5798 56.4153 69.7452 56.3707 69.8958 56.2931C70.0464 56.2155 70.1787 56.1068 70.284 55.9741L72.6662 52.9975L77.1443 55.6853C78.1501 56.2893 78.7733 57.3913 78.7733 58.5608V62.6706C78.7733 62.9897 78.9 63.2958 79.1257 63.5214C79.3513 63.747 79.6573 63.8738 79.9764 63.8738C80.2955 63.8738 80.6015 63.747 80.8272 63.5214C81.0528 63.2958 81.1795 62.9897 81.1795 62.6706V58.5608C81.1795 56.5491 80.1088 54.6578 78.3835 53.6207L73.1595 50.4854L71.2273 48.3414C71.1094 48.2115 70.9458 48.161 70.7918 48.096V46.2817C71.6839 45.5288 72.4016 44.5909 72.8952 43.5331C73.3888 42.4752 73.6465 41.3227 73.6504 40.1554V37.3569L74.8511 31.8057C74.9557 31.2344 74.9449 30.648 74.8192 30.081C74.6936 29.514 74.4557 28.9779 74.1196 28.5043C73.7877 28.0296 73.3638 27.6263 72.8732 27.3184C72.3826 27.0105 71.8352 26.8042 71.2634 26.7116L63.7896 25.4628C63.1722 25.3579 62.5394 25.3898 61.9358 25.5561C61.3321 25.7224 60.7722 26.0191 60.2957 26.4253C59.5848 27.0277 59.0898 27.8454 58.8856 28.7546C57.9682 29.0306 57.1905 29.6458 56.7109 30.4751C56.2312 31.3044 56.0856 32.2853 56.3037 33.2181L57.4419 37.3761V40.1554C57.4464 41.357 57.7194 42.5424 58.2411 43.6248C58.7628 44.7073 59.5198 45.6594 60.4569 46.4116V48.0118C60.2344 48.0632 60.0314 48.1776 59.8722 48.3414ZM61.8501 53.4234L60.2909 51.472L61.0585 50.6201L63.4936 51.78L61.8501 53.4234ZM69.2469 53.421L67.6035 51.78L70.0386 50.6201L70.8062 51.472L69.2469 53.421ZM58.9169 31.5073C59.0436 31.349 59.2044 31.2214 59.3873 31.1339C59.5702 31.0464 59.7705 31.0013 59.9733 31.002C60.6374 31.002 61.1764 30.3812 61.1764 29.7171C61.1773 29.4406 61.2382 29.1677 61.3548 28.9171C61.4715 28.6665 61.6411 28.4442 61.852 28.2655C62.063 28.0868 62.3101 27.9561 62.5765 27.8822C62.8429 27.8084 63.1221 27.7932 63.3949 27.8378L70.8688 29.0866C71.1257 29.1279 71.3717 29.2206 71.5921 29.3591C71.8124 29.4976 72.0026 29.6791 72.1513 29.8927C72.4593 30.3282 72.5772 30.8552 72.4906 31.3413L71.8048 34.5055L71.2393 33.8005C71.1266 33.66 70.9837 33.5466 70.8213 33.4688C70.6589 33.3909 70.481 33.3505 70.3009 33.3505H60.789C60.6086 33.3502 60.4304 33.3908 60.2679 33.4691C60.1054 33.5475 59.9627 33.6616 59.8505 33.8029L59.1864 34.6306L58.6426 32.6503C58.5992 32.4514 58.6013 32.2453 58.6488 32.0474C58.6963 31.8494 58.788 31.6648 58.9169 31.5073ZM59.8481 37.6481L61.3665 35.7591H69.7258L71.2441 37.6456V40.1554C71.2441 43.2979 68.6863 45.8534 65.5461 45.8534C62.406 45.8534 59.8505 43.2955 59.8505 40.1554V37.6481H59.8481ZM65.5461 48.2596C66.5495 48.2596 67.4976 48.0527 68.3855 47.7182V48.7433L65.5485 50.0932L62.8632 48.8155V47.7687C63.7229 48.0845 64.6303 48.2505 65.5461 48.2596ZM53.5077 86.7644C53.7256 86.7657 53.9397 86.7066 54.1261 86.5936L65.5389 79.7454L76.9518 86.5936C77.2243 86.7353 77.5406 86.7676 77.8362 86.6839C78.1317 86.6003 78.3842 86.407 78.542 86.1435C78.6999 85.88 78.7512 85.5662 78.6855 85.2662C78.6198 84.9661 78.4421 84.7025 78.1886 84.529L66.742 77.6616V67.5144C66.742 67.1953 66.6153 66.8893 66.3896 66.6637C66.164 66.4381 65.858 66.3113 65.5389 66.3113C65.2198 66.3113 64.9138 66.4381 64.6882 66.6637C64.4625 66.8893 64.3358 67.1953 64.3358 67.5144V77.6616L52.8893 84.529C52.6634 84.6642 52.4881 84.8698 52.3903 85.1142C52.2924 85.3586 52.2775 85.6284 52.3477 85.8821C52.4179 86.1358 52.5693 86.3595 52.7789 86.5189C52.9884 86.6783 53.2444 86.7645 53.5077 86.7644ZM32.6984 88.4801C31.7225 88.8504 30.8819 89.5079 30.2873 90.3657C29.6928 91.2236 29.3723 92.2416 29.3682 93.2854V96.3894C29.3682 96.7085 29.4949 97.0145 29.7206 97.2402C29.9462 97.4658 30.2522 97.5926 30.5713 97.5926C30.8904 97.5926 31.1964 97.4658 31.422 97.2402C31.6477 97.0145 31.7744 96.7085 31.7744 96.3894V93.2854C31.7744 92.1544 32.4867 91.1294 33.543 90.7299L37.8406 89.1177C38.5721 90.3233 39.8883 91.1414 41.3994 91.1414C42.9105 91.1414 44.2244 90.3257 44.9559 89.1177L49.2558 90.7299C50.3122 91.1294 51.0244 92.1544 51.0244 93.2854V96.3894C51.0244 96.7085 51.1512 97.0145 51.3768 97.2402C51.6024 97.4658 51.9085 97.5926 52.2275 97.5926C52.5466 97.5926 52.8526 97.4658 53.0783 97.2402C53.3039 97.0145 53.4307 96.7085 53.4307 96.3894V93.2854C53.4307 91.1582 52.0928 89.226 50.1004 88.4801L45.5694 86.7813V84.736C46.1738 84.168 46.6556 83.4825 46.9854 82.7215C47.3152 81.9605 47.486 81.1402 47.4872 80.3109V78.0418L48.6254 73.8693C48.711 73.4033 48.7027 72.9249 48.601 72.4622C48.4994 71.9994 48.3064 71.5616 48.0334 71.1743C47.7617 70.7846 47.4145 70.4534 47.0123 70.2004C46.6101 69.9474 46.1612 69.7778 45.6922 69.7017L40.0952 68.7681C39.2379 68.6266 38.3584 68.806 37.6251 69.2721C36.8917 69.7382 36.3559 70.4583 36.1201 71.2946C35.586 71.4897 35.1151 71.8266 34.7582 72.2692C34.1638 73.0079 33.9352 73.9584 34.2023 75.0965L35.2611 77.6327V80.3109C35.2611 82.0771 36.0263 83.658 37.227 84.7769V86.7813L32.6984 88.4801ZM37.6673 80.3109V78.5086C37.6794 78.4917 37.6986 78.4845 37.7106 78.4653L38.5023 77.0769H44.2893L45.0834 78.2415V80.3109C45.0834 82.3562 43.4207 84.0189 41.3754 84.0189C39.33 84.0189 37.6673 82.3562 37.6673 80.3109ZM36.6302 73.7803C36.6967 73.6969 36.7813 73.6297 36.8776 73.5838C36.9739 73.538 37.0794 73.5146 37.1861 73.5156C37.8502 73.5156 38.3892 72.9165 38.3892 72.2523C38.3881 72.0891 38.4232 71.9277 38.4918 71.7796C38.5604 71.6315 38.661 71.5004 38.7862 71.3957C38.9108 71.2892 39.0573 71.2115 39.2154 71.1682C39.3735 71.125 39.5392 71.1172 39.7006 71.1455L45.2975 72.0791C45.4511 72.104 45.598 72.1597 45.7295 72.2428C45.861 72.3259 45.9743 72.4347 46.0627 72.5627C46.2268 72.787 46.3038 73.0632 46.2793 73.34L45.8077 75.0652C45.6954 74.9422 45.5586 74.8439 45.4061 74.7768C45.2536 74.7097 45.0888 74.6751 44.9222 74.6754H37.7997C37.6085 74.6751 37.42 74.7205 37.25 74.808C37.08 74.8955 36.9335 75.0225 36.8227 75.1783L36.4859 74.3867C36.4629 74.2812 36.464 74.172 36.489 74.067C36.514 73.9621 36.5622 73.8641 36.6302 73.7803ZM41.3754 86.4251C42.0034 86.4251 42.5953 86.3024 43.1656 86.1268V86.969C43.1487 87.4258 42.9554 87.8583 42.6262 88.1755C42.2971 88.4927 41.8578 88.67 41.4006 88.67C40.9435 88.67 40.5041 88.4927 40.175 88.1755C39.8458 87.8583 39.6525 87.4258 39.6356 86.969V86.1436C40.1891 86.3096 40.7666 86.4251 41.3754 86.4251ZM100.353 97.5926C100.672 97.5926 100.978 97.4658 101.203 97.2402C101.429 97.0145 101.556 96.7085 101.556 96.3894V93.2854C101.556 91.1582 100.218 89.226 98.2254 88.4801L94.2912 87.0051L93.6969 86.0835V84.736C94.3012 84.168 94.783 83.4825 95.1128 82.7215C95.4426 81.9605 95.6134 81.1402 95.6146 80.3109V78.0418L96.7528 73.8693C96.8384 73.4033 96.8301 72.9249 96.7284 72.4622C96.6268 71.9994 96.4338 71.5616 96.1609 71.1743C95.8891 70.7846 95.5419 70.4534 95.1397 70.2004C94.7375 69.9474 94.2886 69.7778 93.8196 69.7017L88.2226 68.7681C87.7172 68.6842 87.1996 68.7111 86.7056 68.847C86.2116 68.9829 85.7531 69.2244 85.3616 69.5549C84.8202 70.0121 84.4376 70.6113 84.2475 71.2946C83.7134 71.4897 83.2425 71.8266 82.8856 72.2692C82.2912 73.0079 82.0626 73.9584 82.3297 75.0965L83.3885 77.6327V80.3109C83.3885 82.0771 84.1537 83.658 85.3544 84.7769V86.0835L84.76 87.0026L80.8258 88.4777C79.8499 88.848 79.0093 89.5054 78.4147 90.3633C77.8202 91.2212 77.4997 92.2392 77.4956 93.283V96.387C77.4956 96.7061 77.6223 97.0121 77.848 97.2378C78.0736 97.4634 78.3796 97.5901 78.6987 97.5901C79.0178 97.5901 79.3238 97.4634 79.5494 97.2378C79.7751 97.0121 79.9018 96.7061 79.9018 96.387V94.5222L82.5704 90.3906L85.9704 89.1153C86.7019 90.3209 88.0181 91.139 89.5292 91.139C91.0404 91.139 92.3542 90.3233 93.0857 89.1153L96.4857 90.3882L99.1566 94.5222V96.3894C99.1494 97.0536 99.6884 97.5926 100.353 97.5926ZM85.7923 80.3109V78.5086C85.8044 78.4917 85.8236 78.4845 85.8356 78.4653L86.6273 77.0769H92.4143L93.2084 78.2415V80.3109C93.2084 82.3562 91.5457 84.0189 89.5004 84.0189C87.455 84.0189 85.7923 82.3562 85.7923 80.3109ZM84.7552 73.7803C84.8217 73.6969 84.9063 73.6297 85.0026 73.5838C85.0989 73.538 85.2044 73.5146 85.3111 73.5156C85.9752 73.5156 86.5142 72.9165 86.5142 72.2523C86.5131 72.0891 86.5482 71.9277 86.6168 71.7796C86.6854 71.6315 86.786 71.5004 86.9112 71.3957C87.0358 71.2892 87.1823 71.2115 87.3404 71.1682C87.4985 71.125 87.6642 71.1172 87.8256 71.1455L93.4225 72.0791C93.5761 72.104 93.723 72.1597 93.8545 72.2428C93.986 72.3259 94.0993 72.4347 94.1877 72.5627C94.3518 72.787 94.4288 73.0632 94.4043 73.34L93.9327 75.0652C93.8204 74.9422 93.6836 74.8439 93.5311 74.7768C93.3786 74.7097 93.2138 74.6751 93.0472 74.6754H85.9247C85.7335 74.6751 85.545 74.7205 85.375 74.808C85.205 74.8955 85.0585 75.0225 84.9477 75.1783L84.6109 74.3867C84.5879 74.2812 84.589 74.172 84.614 74.067C84.639 73.9621 84.6872 73.8641 84.7552 73.7803ZM89.5244 88.7351C89.056 88.7351 88.6068 88.5491 88.2755 88.2178C87.9443 87.8866 87.7582 87.4374 87.7582 86.969V86.1436C88.3141 86.3096 88.8916 86.4276 89.5004 86.4276C90.1284 86.4276 90.7203 86.3048 91.2906 86.1292V86.9714C91.29 87.4394 91.1036 87.888 90.7724 88.2187C90.4413 88.5494 89.9924 88.7351 89.5244 88.7351Z" fill="white"/>
</svg>
