<svg width="100" height="100" viewBox="0 0 100 100" fill="none" xmlns="http://www.w3.org/2000/svg">
<circle cx="50" cy="50" r="50" fill="#2898A1"/>
<path d="M53.3868 50.6997L65.4181 38.6875C65.7777 38.3279 65.9797 37.8402 65.9797 37.3316C65.9797 36.823 65.7777 36.3353 65.4181 35.9757C65.0585 35.6161 64.5707 35.4141 64.0622 35.4141C63.5536 35.4141 63.0659 35.6161 62.7063 35.9757L50.6941 48.0069L38.682 35.9757C38.3224 35.6161 37.8346 35.4141 37.3261 35.4141C36.8175 35.4141 36.3298 35.6161 35.9702 35.9757C35.6106 36.3353 35.4085 36.823 35.4085 37.3316C35.4085 37.8402 35.6106 38.3279 35.9702 38.6875L48.0014 50.6997L35.9702 62.7118C35.7912 62.8893 35.6491 63.1006 35.5521 63.3333C35.4552 63.566 35.4053 63.8156 35.4053 64.0677C35.4053 64.3198 35.4552 64.5694 35.5521 64.8021C35.6491 65.0349 35.7912 65.2461 35.9702 65.4236C36.1477 65.6026 36.3589 65.7447 36.5916 65.8416C36.8244 65.9386 37.074 65.9885 37.3261 65.9885C37.5782 65.9885 37.8278 65.9386 38.0605 65.8416C38.2932 65.7447 38.5044 65.6026 38.682 65.4236L50.6941 53.3924L62.7063 65.4236C62.8838 65.6026 63.095 65.7447 63.3277 65.8416C63.5605 65.9386 63.8101 65.9885 64.0622 65.9885C64.3143 65.9885 64.5639 65.9386 64.7966 65.8416C65.0293 65.7447 65.2405 65.6026 65.4181 65.4236C65.5971 65.2461 65.7392 65.0349 65.8361 64.8021C65.9331 64.5694 65.983 64.3198 65.983 64.0677C65.983 63.8156 65.9331 63.566 65.8361 63.3333C65.7392 63.1006 65.5971 62.8893 65.4181 62.7118L53.3868 50.6997Z" fill="white"/>
</svg>
